<?xml version="1.0" encoding="UTF-8" standalone="no"?>
<svg
   xmlns:dc="http://purl.org/dc/elements/1.1/"
   xmlns:cc="http://creativecommons.org/ns#"
   xmlns:rdf="http://www.w3.org/1999/02/22-rdf-syntax-ns#"
   xmlns:svg="http://www.w3.org/2000/svg"
   xmlns="http://www.w3.org/2000/svg"
   xmlns:sodipodi="http://sodipodi.sourceforge.net/DTD/sodipodi-0.dtd"
   xmlns:inkscape="http://www.inkscape.org/namespaces/inkscape"
   width="174mm"
   height="174mm"
   viewBox="0 0 174 174"
   version="1.1"
   id="svg5"
   inkscape:version="1.0.1 (3bc2e813f5, 2020-09-07)"
   sodipodi:docname="callisto-logo.svg"
   inkscape:export-filename="F:\Documents\OS_Projects\callisto\build_files\files\usr\share\pixmaps\callisto-logo-small.png"
   inkscape:export-xdpi="18.685057"
   inkscape:export-ydpi="18.685057">
  <metadata
     id="metadata13">
    <rdf:RDF>
      <cc:Work
         rdf:about="">
        <dc:format>image/svg+xml</dc:format>
        <dc:type
           rdf:resource="http://purl.org/dc/dcmitype/StillImage" />
      </cc:Work>
    </rdf:RDF>
  </metadata>
  <sodipodi:namedview
     id="namedview7"
     pagecolor="#ffffff"
     bordercolor="#666666"
     borderopacity="1.0"
     inkscape:pageshadow="2"
     inkscape:pageopacity="0.0"
     inkscape:pagecheckerboard="0"
     inkscape:document-units="mm"
     showgrid="false"
     inkscape:zoom="0.5499273"
     inkscape:cx="505.41541"
     inkscape:cy="236.54281"
     inkscape:window-width="1680"
     inkscape:window-height="979"
     inkscape:window-x="-8"
     inkscape:window-y="-8"
     inkscape:window-maximized="1"
     inkscape:current-layer="g1944"
     inkscape:document-rotation="0" />
  <defs
     id="defs2" />
  <g
     inkscape:label="Layer 1"
     inkscape:groupmode="layer"
     id="layer1">
    <g
       id="g1944"
       inkscape:label="Logo"
       transform="translate(-17.999883,-61.499882)">
      <circle
         style="fill:#2a7fff;stroke-width:0.969571;stroke-linecap:round;stroke-linejoin:round"
         id="path1652"
         cx="104.99989"
         cy="148.49988"
         inkscape:label="Background"
         r="79" />
      <path
         id="path1774"
         style="fill:#2a7fff;stroke-width:0.974318;stroke-linecap:round;stroke-linejoin:round"
         d="m 104.99974,61.499882 a 87,87 0 0 0 -86.999857,86.999858 87,87 0 0 0 86.999857,87.00038 87,87 0 0 0 87.00038,-87.00038 87,87 0 0 0 -87.00038,-86.999858 z m 0,4.000273 a 83,83 0 0 1 83.0001,82.999585 83,83 0 0 1 -83.0001,83.0001 83,83 0 0 1 -83.0001,-83.0001 83,83 0 0 1 83.0001,-82.999585 z"
         inkscape:label="Border" />
      <g
         id="g2931"
         inkscape:label="Fedora"
         transform="matrix(1.2625457,0,0,1.2625457,287.97838,-45.74541)"
         style="stroke:#5499ff;stroke-width:9.50461;stroke-miterlimit:4;stroke-dasharray:none;stroke-opacity:1">
        <path
           style="fill:none;stroke:#5499ff;stroke-width:9.50461;stroke-linecap:round;stroke-linejoin:miter;stroke-miterlimit:4;stroke-dasharray:none;stroke-opacity:1"
           d="m -104.78351,132.68041 c 5.707841,-29.75289 -36.61022,-31.13926 -36.91236,-6.46392 v 53.75258 c -6.08018,23.48225 -29.22475,21.80646 -36.66242,14.22403 -12.07379,-10.3311 -11.32841,-40.58069 21.86345,-40.59001"
           id="path2071"
           sodipodi:nodetypes="ccccc" />
        <path
           style="fill:none;stroke:#5499ff;stroke-width:9.50461;stroke-linecap:round;stroke-linejoin:miter;stroke-miterlimit:4;stroke-dasharray:none;stroke-opacity:1"
           d="m -140.50515,153.09278 h 18.88144"
           id="path2828" />
      </g>
      <path
         id="path1000"
         style="fill:#ffffff;stroke:#ffffff;stroke-width:0;stroke-miterlimit:4;stroke-dasharray:none;filter:url(#filter847)"
         d="m 74.599768,100.78216 a 7.2068244,7.2068244 0 0 0 -6.945326,5.29915 h -7.927574 a 7.2068244,7.2068244 0 0 0 -6.742981,-4.6632 7.2068244,7.2068244 0 0 0 -0.0045,0 7.2068244,7.2068244 0 0 0 -7.202156,7.20672 7.2068244,7.2068244 0 0 0 7.20672,7.20672 7.2068244,7.2068244 0 0 0 7.204586,-7.03206 l 7.286134,0.24008 a 7.2068244,7.2068244 0 0 0 7.129734,6.15632 7.2068244,7.2068244 0 0 0 1.422234,-0.14174 l 2.373123,7.4462 a 7.2068244,7.2068244 0 0 0 -1.463621,4.35342 7.2068244,7.2068244 0 0 0 7.206723,7.20701 7.2068244,7.2068244 0 0 0 3.188306,-0.74398 l 15.04544,10.24106 a 7.2068244,7.2068244 0 0 0 -0.004,0.25317 7.2068244,7.2068244 0 0 0 2.91872,5.7921 l -1.23635,18.42118 a 7.2068244,7.2068244 0 0 0 -5.285761,6.94564 7.2068244,7.2068244 0 0 0 7.207031,7.20703 7.2068244,7.2068244 0 0 0 3.10462,-0.70321 l 25.32574,18.7063 a 7.2068244,7.2068244 0 0 0 7.17964,6.58475 7.2068244,7.2068244 0 0 0 7.20672,-7.20671 7.2068244,7.2068244 0 0 0 -0.30916,-2.08801 l 14.54367,-20.60323 a 7.2068244,7.2068244 0 0 0 0.39131,0.0103 7.2068244,7.2068244 0 0 0 7.20673,-7.20703 7.2068244,7.2068244 0 0 0 -7.20673,-7.2067 7.2068244,7.2068244 0 0 0 -3.5145,0.91497 L 116.53528,145.6964 a 7.2068244,7.2068244 0 0 0 0.25103,-1.88534 7.2068244,7.2068244 0 0 0 -7.20672,-7.20672 7.2068244,7.2068244 0 0 0 -5.35269,2.38134 l -13.925663,-8.38734 a 7.2068244,7.2068244 0 0 0 1.049171,-3.74456 7.2068244,7.2068244 0 0 0 -7.206719,-7.2067 7.2068244,7.2068244 0 0 0 -2.648497,0.50449 l -2.17275,-6.71472 a 7.2068244,7.2068244 0 0 0 2.489064,-5.44794 7.2068244,7.2068244 0 0 0 -7.206714,-7.20672 7.2068244,7.2068244 0 0 0 -0.0045,0 z m 40.269562,47.92235 41.70851,18.69688 a 7.2068244,7.2068244 0 0 0 -0.36696,2.26935 7.2068244,7.2068244 0 0 0 3.3721,6.10187 l -14.23483,17.63885 a 7.2068244,7.2068244 0 0 0 -3.76279,-1.06043 7.2068244,7.2068244 0 0 0 -5.34327,2.37131 l -24.53126,-15.38929 a 7.2068244,7.2068244 0 0 0 1.47123,-4.36316 7.2068244,7.2068244 0 0 0 -5.24346,-6.93408 l 0.94723,-17.05129 a 7.2068244,7.2068244 0 0 0 0.69287,0.0334 7.2068244,7.2068244 0 0 0 5.29063,-2.31348 z" />
    </g>
  </g>
</svg>
