<?xml version="1.0" encoding="UTF-8" standalone="no"?>
<!-- Created with Inkscape (http://www.inkscape.org/) -->

<svg
   width="174mm"
   height="174mm"
   viewBox="0 0 174 174"
   version="1.1"
   id="svg5"
   inkscape:version="1.1 (c68e22c387, 2021-05-23)"
   sodipodi:docname="Callisto OS.svg"
   xmlns:inkscape="http://www.inkscape.org/namespaces/inkscape"
   xmlns:sodipodi="http://sodipodi.sourceforge.net/DTD/sodipodi-0.dtd"
   xmlns="http://www.w3.org/2000/svg"
   xmlns:svg="http://www.w3.org/2000/svg">
  <sodipodi:namedview
     id="namedview7"
     pagecolor="#ffffff"
     bordercolor="#666666"
     borderopacity="1.0"
     inkscape:pageshadow="2"
     inkscape:pageopacity="0.0"
     inkscape:pagecheckerboard="0"
     inkscape:document-units="mm"
     showgrid="false"
     inkscape:zoom="1.0998546"
     inkscape:cx="229.12119"
     inkscape:cy="280.49162"
     inkscape:window-width="2560"
     inkscape:window-height="1377"
     inkscape:window-x="-8"
     inkscape:window-y="-8"
     inkscape:window-maximized="1"
     inkscape:current-layer="g2931" />
  <defs
     id="defs2" />
  <g
     inkscape:label="Layer 1"
     inkscape:groupmode="layer"
     id="layer1">
    <g
       id="g1944"
       inkscape:label="Logo"
       transform="translate(-17.999883,-61.499882)">
      <circle
         style="fill:#2a7fff;stroke-width:0.969571;stroke-linecap:round;stroke-linejoin:round"
         id="path1652"
         cx="104.99989"
         cy="148.49988"
         inkscape:label="Background"
         r="79" />
      <path
         id="path1774"
         style="fill:#2a7fff;stroke-width:0.974318;stroke-linecap:round;stroke-linejoin:round"
         d="m 104.99974,61.499882 a 87,87 0 0 0 -86.999857,86.999858 87,87 0 0 0 86.999857,87.00038 87,87 0 0 0 87.00038,-87.00038 87,87 0 0 0 -87.00038,-86.999858 z m 0,4.000273 a 83,83 0 0 1 83.0001,82.999585 83,83 0 0 1 -83.0001,83.0001 83,83 0 0 1 -83.0001,-83.0001 83,83 0 0 1 83.0001,-82.999585 z"
         inkscape:label="Border" />
      <g
         id="g2931"
         inkscape:label="Fedora"
         transform="matrix(1.2625457,0,0,1.2625457,287.97838,-45.74541)"
         style="stroke:#5499ff;stroke-width:9.50461;stroke-miterlimit:4;stroke-dasharray:none;stroke-opacity:1">
        <path
           style="fill:none;stroke:#5499ff;stroke-width:9.50461;stroke-linecap:round;stroke-linejoin:miter;stroke-miterlimit:4;stroke-dasharray:none;stroke-opacity:1"
           d="m -104.78351,132.68041 c 5.707841,-29.75289 -36.61022,-31.13926 -36.91236,-6.46392 v 53.75258 c -6.08018,23.48225 -29.22475,21.80646 -36.66242,14.22403 -12.07379,-10.3311 -11.32841,-40.58069 21.86345,-40.59001"
           id="path2071"
           sodipodi:nodetypes="ccccc" />
        <path
           style="fill:none;stroke:#5499ff;stroke-width:9.50461;stroke-linecap:round;stroke-linejoin:miter;stroke-miterlimit:4;stroke-dasharray:none;stroke-opacity:1"
           d="m -140.50515,153.09278 h 18.88144"
           id="path2828" />
      </g>
      <path
         id="path858"
         style="fill:#ffffff;stroke-width:0.642858;stroke-linecap:round;stroke-linejoin:round"
         d="m 147.64966,116.18045 a 3.0618554,3.0618554 0 0 0 -3.04426,2.7528 l -24.15512,1.83193 a 3.0618554,3.0618554 0 0 0 -2.73885,-1.69292 3.0618554,3.0618554 0 0 0 -2.96932,2.32027 l -25.123017,4.5992 a 3.0618554,3.0618554 0 0 0 -2.866491,-1.98644 3.0618554,3.0618554 0 0 0 -2.886646,2.0469 L 72.29147,123.39396 a 3.0618554,3.0618554 0 0 0 0.0026,-0.0693 3.0618554,3.0618554 0 0 0 -3.062345,-3.06183 3.0618554,3.0618554 0 0 0 -2.893362,2.0681 c -0.0062,-0.002 -0.01228,-0.005 -0.0186,-0.007 l -5.77329,-1.81643 a 3.0618554,3.0618554 0 0 0 0.01035,-0.24495 3.0618554,3.0618554 0 0 0 -3.061827,-3.06183 3.0618554,3.0618554 0 0 0 -3.06183,3.06183 3.0618554,3.0618554 0 0 0 0.01654,0.29972 l -12.816271,3.49282 a 3.0618554,3.0618554 0 0 0 -2.67994,-1.5813 3.0618554,3.0618554 0 0 0 -3.061828,3.06182 3.0618554,3.0618554 0 0 0 3.061828,3.06183 3.0618554,3.0618554 0 0 0 3.061829,-3.06183 3.0618554,3.0618554 0 0 0 -0.01963,-0.34519 l 12.799219,-3.48816 a 3.0618554,3.0618554 0 0 0 2.700094,1.62212 3.0618554,3.0618554 0 0 0 2.725415,-1.67122 l 5.741768,1.80661 c 0.07128,0.0224 0.143708,0.0309 0.213939,0.0269 a 3.0618554,3.0618554 0 0 0 3.055628,2.89957 3.0618554,3.0618554 0 0 0 2.801379,-1.82986 l 11.663889,2.67838 a 3.0618554,3.0618554 0 0 0 3.055628,2.89388 3.0618554,3.0618554 0 0 0 0.424262,-0.0305 l 3.304709,8.78447 a 3.0618554,3.0618554 0 0 0 -1.857769,2.81275 3.0618554,3.0618554 0 0 0 1.852083,2.81068 l -0.58911,9.45007 a 3.0618554,3.0618554 0 0 0 -2.794146,3.04891 3.0618554,3.0618554 0 0 0 2.684592,3.03599 l 3.088182,36.26859 a 3.0618554,3.0618554 0 0 0 -2.030367,2.88096 3.0618554,3.0618554 0 0 0 3.06183,3.06183 3.0618554,3.0618554 0 0 0 3.061827,-3.06183 3.0618554,3.0618554 0 0 0 -2.913515,-3.05821 L 90.96523,159.95523 a 3.0618554,3.0618554 0 0 0 1.014409,-0.49454 l 8.346781,9.61285 a 3.0618554,3.0618554 0 0 0 -0.645961,1.87999 3.0618554,3.0618554 0 0 0 3.061831,3.06183 3.0618554,3.0618554 0 0 0 2.18385,-0.91881 l 18.16633,11.21482 a 3.0618554,3.0618554 0 0 0 -0.27802,1.27072 3.0618554,3.0618554 0 0 0 3.06183,3.06183 3.0618554,3.0618554 0 0 0 3.06183,-3.06183 3.0618554,3.0618554 0 0 0 -3.06183,-3.06183 3.0618554,3.0618554 0 0 0 -2.08721,0.82217 l -18.20922,-11.24169 a 3.0618554,3.0618554 0 0 0 0.22427,-1.14721 3.0618554,3.0618554 0 0 0 -3.06183,-3.06235 3.0618554,3.0618554 0 0 0 -1.51567,0.40204 l -8.442896,-9.72188 a 3.0618554,3.0618554 0 0 0 0.43253,-1.56632 3.0618554,3.0618554 0 0 0 -2.144053,-2.92126 l 0.581358,-9.3276 a 3.0618554,3.0618554 0 0 0 0.03204,0.001 3.0618554,3.0618554 0 0 0 3.061827,-3.05873 l 16.719384,-2.18902 a 3.0618554,3.0618554 0 0 0 3.01274,2.52647 3.0618554,3.0618554 0 0 0 3.06183,-3.06183 3.0618554,3.0618554 0 0 0 -0.0181,-0.32918 l 21.81883,-5.73557 a 3.0618554,3.0618554 0 0 0 2.8639,1.98231 3.0618554,3.0618554 0 0 0 0.84026,-0.11989 l 6.04459,13.45809 a 3.0618554,3.0618554 0 0 0 -1.27124,2.48099 3.0618554,3.0618554 0 0 0 3.06183,3.06183 3.0618554,3.0618554 0 0 0 1.82366,-0.60462 l 11.08201,7.4135 a 3.0618554,3.0618554 0 0 0 -0.31832,1.35651 3.0618554,3.0618554 0 0 0 3.06182,3.06183 3.0618554,3.0618554 0 0 0 3.06235,-3.06183 3.0618554,3.0618554 0 0 0 -3.06235,-3.06183 3.0618554,3.0618554 0 0 0 -2.01589,0.75964 l -11.00243,-7.36079 a 3.0618554,3.0618554 0 0 0 0.43098,-1.56424 3.0618554,3.0618554 0 0 0 -3.06183,-3.06183 3.0618554,3.0618554 0 0 0 -0.70848,0.0842 l -6.06526,-13.50408 a 3.0618554,3.0618554 0 0 0 1.16013,-2.39934 3.0618554,3.0618554 0 0 0 -0.11007,-0.81339 l 21.63175,-8.68319 a 3.0618554,3.0618554 0 0 0 2.63292,1.50172 3.0618554,3.0618554 0 0 0 3.06183,-3.06183 3.0618554,3.0618554 0 0 0 -3.06183,-3.06234 3.0618554,3.0618554 0 0 0 -2.94711,2.23965 l -15.77165,-0.92087 a 3.0618554,3.0618554 0 0 0 -3.05407,-2.84944 z m -2.93264,3.93877 a 3.0618554,3.0618554 0 0 0 2.93264,2.18488 3.0618554,3.0618554 0 0 0 2.90111,-2.09031 l 15.83366,0.92398 a 3.0618554,3.0618554 0 0 0 0.008,0.0723 l -21.77077,8.73849 a 3.0618554,3.0618554 0 0 0 -2.41587,-1.18081 3.0618554,3.0618554 0 0 0 -3.05769,2.96106 l -21.98161,5.77846 a 3.0618554,3.0618554 0 0 0 -2.68717,-1.59473 3.0618554,3.0618554 0 0 0 -2.98793,2.39313 l -16.975713,2.2226 a 3.0618554,3.0618554 0 0 0 -2.830316,-1.89445 3.0618554,3.0618554 0 0 0 -0.02532,0.001 l -3.358451,-8.92814 a 3.0618554,3.0618554 0 0 0 1.508953,-2.5399 l 24.877037,-4.55424 a 3.0618554,3.0618554 0 0 0 3.02358,2.5833 3.0618554,3.0618554 0 0 0 3.06183,-3.06182 3.0618554,3.0618554 0 0 0 -0.007,-0.19896 z"
         inkscape:label="Constellation" />
    </g>
  </g>
</svg>
