<?xml version="1.0" encoding="utf-8"?>
<svg xmlns="http://www.w3.org/2000/svg" viewBox="0 0 500 500" xmlns:bx="https://boxy-svg.com" width="500px" height="500px"><defs/><g style="" transform="matrix(1.121279, 0, 0, 1.121279, -30.319751, -30.319751)"><g transform="matrix(1, 0, 0, 1, 1.481003, 7.005005)"><path style="fill: none; stroke-linecap: round; stroke-linejoin: round; stroke-width: 24px; stroke: rgb(0, 0, 0);" d="M 155.691 119.036 C 155.691 119.036 179.412 129.651 193.282 141.466 C 207.152 153.281 207.605 170.705 216.86 180.516 C 226.115 190.327 226.849 196.013 248.511 212.118 C 270.173 228.223 288.783 237.605 295.536 244.358 C 302.289 251.111 328.735 266.321 344.766 283.4 C 360.797 300.479 378.262 327.856 379.046 329.338 C 379.83 330.82 324.255 305.536 296.515 289.497 C 268.775 273.458 243.264 256.126 228.492 244.216 C 213.72 232.306 211.783 228.602 211.783 228.602 C 211.783 228.602 229.598 203.1 234.116 199.523"/><path style="fill: none; paint-order: stroke; stroke-linecap: round; stroke-linejoin: round; stroke-width: 24px; stroke: rgb(0, 0, 0);" d="M 214.667 226.757 C 214.667 226.757 186.929 255.978 173.862 271.296 C 153.411 295.269 126.856 327.508 126.856 327.508"/><path style="fill: none; stroke-linejoin: round; stroke-linecap: round; stroke-width: 24px; stroke: rgb(0, 0, 0);" d="M 188.449 256.447 C 188.449 256.447 186.865 276.333 188.94 301.657 C 191.015 326.981 201.561 362.849 201.561 362.849"/><path style="fill: none; stroke-linecap: round; stroke-linejoin: round; stroke-width: 24px; stroke: rgb(0, 0, 0);" d="M 313.055 300.382 C 313.055 300.382 301.37 302.487 298.701 342.653 C 296.032 382.819 302.053 385.285 302.102 385.024"/><ellipse style="fill: none; stroke-width: 24px; stroke: rgb(0, 0, 0);" cx="248.519" cy="242.995" rx="200.831" ry="200.831"/></g></g></svg>