<?xml version="1.0" encoding="UTF-8" standalone="no"?>
<svg
   xmlns:dc="http://purl.org/dc/elements/1.1/"
   xmlns:cc="http://creativecommons.org/ns#"
   xmlns:rdf="http://www.w3.org/1999/02/22-rdf-syntax-ns#"
   xmlns:svg="http://www.w3.org/2000/svg"
   xmlns="http://www.w3.org/2000/svg"
   xmlns:sodipodi="http://sodipodi.sourceforge.net/DTD/sodipodi-0.dtd"
   xmlns:inkscape="http://www.inkscape.org/namespaces/inkscape"
   viewBox="0 0 500 500"
   width="500px"
   height="500px"
   version="1.1"
   id="svg18"
   sodipodi:docname="start-here-dark.svg"
   inkscape:version="1.0.1 (3bc2e813f5, 2020-09-07)">
  <metadata
     id="metadata22">
    <rdf:RDF>
      <cc:Work
         rdf:about="">
        <dc:format>image/svg+xml</dc:format>
        <dc:type
           rdf:resource="http://purl.org/dc/dcmitype/StillImage" />
        <dc:title></dc:title>
      </cc:Work>
    </rdf:RDF>
  </metadata>
  <sodipodi:namedview
     pagecolor="#ffffff"
     bordercolor="#666666"
     borderopacity="1"
     objecttolerance="10"
     gridtolerance="10"
     guidetolerance="10"
     inkscape:pageopacity="0"
     inkscape:pageshadow="2"
     inkscape:window-width="1680"
     inkscape:window-height="979"
     id="namedview20"
     showgrid="false"
     inkscape:zoom="1.47"
     inkscape:cx="250"
     inkscape:cy="250"
     inkscape:window-x="-8"
     inkscape:window-y="-8"
     inkscape:window-maximized="1"
     inkscape:current-layer="g14" />
  <defs
     id="defs2" />
  <g
     id="g16">
    <g
       transform="translate(1.481003,7.005005)"
       id="g14"
       style="fill:none">
      <path
         style="fill:none;stroke:#000000;stroke-width:24px;stroke-linecap:round;stroke-linejoin:round"
         d="m 155.691,119.036 c 0,0 23.721,10.615 37.591,22.43 13.87,11.815 14.323,29.239 23.578,39.05 9.255,9.811 9.989,15.497 31.651,31.602 21.662,16.105 40.272,25.487 47.025,32.24 6.753,6.753 33.199,21.963 49.23,39.042 16.031,17.079 33.496,44.456 34.28,45.938 0.784,1.482 -54.791,-23.802 -82.531,-39.841 -27.74,-16.039 -53.251,-33.371 -68.023,-45.281 -14.772,-11.91 -16.709,-15.614 -16.709,-15.614 0,0 17.815,-25.502 22.333,-29.079"
         id="path4" />
      <path
         style="fill:none;stroke:#000000;stroke-width:24px;stroke-linecap:round;stroke-linejoin:round;paint-order:stroke"
         d="m 214.667,226.757 c 0,0 -27.738,29.221 -40.805,44.539 -20.451,23.973 -47.006,56.212 -47.006,56.212"
         id="path6" />
      <path
         style="fill:none;stroke:#000000;stroke-width:24px;stroke-linecap:round;stroke-linejoin:round"
         d="m 188.449,256.447 c 0,0 -1.584,19.886 0.491,45.21 2.075,25.324 12.621,61.192 12.621,61.192"
         id="path8" />
      <path
         style="fill:#000000;stroke:#000000;stroke-width:24px;stroke-linecap:round;stroke-linejoin:round"
         d="m 313.055,300.382 c 0,0 -11.685,2.105 -14.354,42.271 -2.669,40.166 3.352,42.632 3.401,42.371"
         id="path10" />
      <circle
         style="fill:none;stroke:#000000;stroke-width:24px"
         cx="248.519"
         cy="242.995"
         id="ellipse12"
         r="200.83099" />
    </g>
  </g>
</svg>
