<?xml version="1.0" encoding="UTF-8" standalone="no"?>
<svg
   xmlns:dc="http://purl.org/dc/elements/1.1/"
   xmlns:cc="http://creativecommons.org/ns#"
   xmlns:rdf="http://www.w3.org/1999/02/22-rdf-syntax-ns#"
   xmlns:svg="http://www.w3.org/2000/svg"
   xmlns="http://www.w3.org/2000/svg"
   xmlns:sodipodi="http://sodipodi.sourceforge.net/DTD/sodipodi-0.dtd"
   xmlns:inkscape="http://www.inkscape.org/namespaces/inkscape"
   viewBox="0 0 500 500"
   width="500px"
   height="500px"
   version="1.1"
   id="svg18"
   sodipodi:docname="start-here.svg"
   inkscape:version="1.0.1 (3bc2e813f5, 2020-09-07)">
  <metadata
     id="metadata22">
    <rdf:RDF>
      <cc:Work
         rdf:about="">
        <dc:format>image/svg+xml</dc:format>
        <dc:type
           rdf:resource="http://purl.org/dc/dcmitype/StillImage" />
        <dc:title />
      </cc:Work>
    </rdf:RDF>
  </metadata>
  <sodipodi:namedview
     pagecolor="#4a4444"
     bordercolor="#666666"
     borderopacity="1"
     objecttolerance="10"
     gridtolerance="10"
     guidetolerance="10"
     inkscape:pageopacity="0"
     inkscape:pageshadow="2"
     inkscape:window-width="1680"
     inkscape:window-height="979"
     id="namedview20"
     showgrid="false"
     inkscape:pagecheckerboard="true"
     inkscape:zoom="0.73500002"
     inkscape:cx="347.35672"
     inkscape:cy="273.40796"
     inkscape:window-x="-8"
     inkscape:window-y="-8"
     inkscape:window-maximized="1"
     inkscape:current-layer="g16"
     inkscape:document-rotation="0" />
  <defs
     id="defs2">
    <filter
       inkscape:collect="always"
       style="color-interpolation-filters:sRGB"
       id="filter847"
       x="-0.0024"
       width="1.0048"
       y="-0.0024"
       height="1.0048">
      <feGaussianBlur
         inkscape:collect="always"
         stdDeviation="0.40166199"
         id="feGaussianBlur849" />
    </filter>
  </defs>
  <g
     transform="matrix(1.121279,0,0,1.121279,-30.319751,-30.319751)"
     id="g16"
     style="filter:url(#filter847)"
     inkscape:label="Logo">
    <circle
       style="fill:#2a7fff;fill-opacity:1;stroke:none;stroke-width:24px"
       cx="250"
       cy="250"
       id="ellipse12"
       inkscape:label="Ellipse"
       r="200.83099" />
    <path
       id="path1000"
       style="fill:#ffffff;stroke:#ffffff;stroke-width:0;stroke-miterlimit:4;stroke-dasharray:none"
       d="m 174.37935,133.82013 a 17.780726,17.780726 0 0 0 -17.13557,13.07409 h -19.55896 a 17.780726,17.780726 0 0 0 -16.63633,-11.50505 17.780726,17.780726 0 0 0 -0.0112,0 17.780726,17.780726 0 0 0 -17.76921,17.78046 17.780726,17.780726 0 0 0 17.78048,17.78046 17.780726,17.780726 0 0 0 17.77519,-17.34954 l 17.97641,0.59233 a 17.780726,17.780726 0 0 0 17.59052,15.18892 17.780726,17.780726 0 0 0 3.50894,-0.34985 l 5.85499,18.3713 a 17.780726,17.780726 0 0 0 -3.61104,10.74079 17.780726,17.780726 0 0 0 17.78045,17.78121 17.780726,17.780726 0 0 0 7.86623,-1.83554 l 37.1202,25.2668 a 17.780726,17.780726 0 0 0 -0.012,0.62462 17.780726,17.780726 0 0 0 7.20108,14.29028 l -3.05025,45.44888 a 17.780726,17.780726 0 0 0 -13.04106,17.13633 17.780726,17.780726 0 0 0 17.78122,17.78121 17.780726,17.780726 0 0 0 7.65976,-1.73495 l 62.48386,46.15232 a 17.780726,17.780726 0 0 0 17.71364,16.24595 17.780726,17.780726 0 0 0 17.78047,-17.78046 17.780726,17.780726 0 0 0 -0.76276,-5.15156 l 35.88224,-50.83241 a 17.780726,17.780726 0 0 0 0.96545,0.027 17.780726,17.780726 0 0 0 17.78046,-17.78121 17.780726,17.780726 0 0 0 -17.78046,-17.78046 17.780726,17.780726 0 0 0 -8.67101,2.25746 L 277.84077,244.63269 a 17.780726,17.780726 0 0 0 0.61936,-4.65157 17.780726,17.780726 0 0 0 -17.78048,-17.78046 17.780726,17.780726 0 0 0 -13.20622,5.87528 l -34.35748,-20.69332 a 17.780726,17.780726 0 0 0 2.58853,-9.23858 17.780726,17.780726 0 0 0 -17.78046,-17.78046 17.780726,17.780726 0 0 0 -6.53442,1.24472 l -5.35951,-16.56651 a 17.780726,17.780726 0 0 0 6.14103,-13.4412 17.780726,17.780726 0 0 0 -17.78045,-17.78046 17.780726,17.780726 0 0 0 -0.0113,0 z m 99.35331,118.23435 102.90356,46.12905 a 17.780726,17.780726 0 0 0 -0.90539,5.599 17.780726,17.780726 0 0 0 8.31967,15.05453 l -35.12024,43.51874 a 17.780726,17.780726 0 0 0 -9.28362,-2.61632 17.780726,17.780726 0 0 0 -13.18294,5.8505 l -60.52369,-37.96854 a 17.780726,17.780726 0 0 0 3.62982,-10.76482 17.780726,17.780726 0 0 0 -12.9367,-17.1078 l 2.33704,-42.06906 a 17.780726,17.780726 0 0 0 1.70943,0.0826 17.780726,17.780726 0 0 0 13.05306,-5.70785 z" />
  </g>
</svg>
