<?xml version="1.0" encoding="UTF-8" standalone="no"?>
<svg
   viewBox="0 0 500 500"
   width="500px"
   height="500px"
   version="1.1"
   id="svg18"
   sodipodi:docname="logo.svg"
   inkscape:version="1.4.3 (0d15f75, 2025-12-25)"
   xmlns:inkscape="http://www.inkscape.org/namespaces/inkscape"
   xmlns:sodipodi="http://sodipodi.sourceforge.net/DTD/sodipodi-0.dtd"
   xmlns="http://www.w3.org/2000/svg"
   xmlns:svg="http://www.w3.org/2000/svg"
   xmlns:rdf="http://www.w3.org/1999/02/22-rdf-syntax-ns#"
   xmlns:cc="http://creativecommons.org/ns#"
   xmlns:dc="http://purl.org/dc/elements/1.1/">
  <metadata
     id="metadata22">
    <rdf:RDF>
      <cc:Work
         rdf:about="">
        <dc:format>image/svg+xml</dc:format>
        <dc:type
           rdf:resource="http://purl.org/dc/dcmitype/StillImage" />
      </cc:Work>
    </rdf:RDF>
  </metadata>
  <sodipodi:namedview
     pagecolor="#4a4444"
     bordercolor="#666666"
     borderopacity="1"
     objecttolerance="10"
     gridtolerance="10"
     guidetolerance="10"
     inkscape:pageopacity="0"
     inkscape:pageshadow="2"
     inkscape:window-width="1680"
     inkscape:window-height="979"
     id="namedview20"
     showgrid="false"
     inkscape:pagecheckerboard="true"
     inkscape:zoom="0.73500002"
     inkscape:cx="346.93877"
     inkscape:cy="274.14965"
     inkscape:window-x="-8"
     inkscape:window-y="-8"
     inkscape:window-maximized="1"
     inkscape:current-layer="g16"
     inkscape:document-rotation="0"
     inkscape:showpageshadow="2"
     inkscape:deskcolor="#d1d1d1" />
  <defs
     id="defs2">
    <filter
       inkscape:collect="always"
       style="color-interpolation-filters:sRGB"
       id="filter847"
       x="-0.0022342247"
       width="1.0044684"
       y="-0.0026319146"
       height="1.0052638">
      <feGaussianBlur
         inkscape:collect="always"
         stdDeviation="0.40166199"
         id="feGaussianBlur849" />
    </filter>
  </defs>
  <g
     transform="matrix(1.121279,0,0,1.121279,-30.319751,-30.319751)"
     id="g16"
     style="filter:url(#filter847)"
     inkscape:label="Logo">
    <path
       id="path1000"
       style="fill:#ffffff;stroke:#ffffff;stroke-width:0;stroke-miterlimit:4;stroke-dasharray:none"
       d="M 133.87658,66.8656 A 24.90631,24.90631 0 0 0 109.87399,85.179109 H 82.476821 A 24.90631,24.90631 0 0 0 59.17352,69.063421 a 24.90631,24.90631 0 0 0 -0.01563,0 A 24.90631,24.90631 0 0 0 34.267719,93.969372 24.90631,24.90631 0 0 0 59.17367,118.87531 24.90631,24.90631 0 0 0 84.072242,94.572974 l 25.180398,0.829706 a 24.90631,24.90631 0 0 0 24.63989,21.27584 24.90631,24.90631 0 0 0 4.91515,-0.49004 l 8.20136,25.73355 a 24.90631,24.90631 0 0 0 -5.05818,15.04513 24.90631,24.90631 0 0 0 24.90594,24.907 24.90631,24.90631 0 0 0 11.01859,-2.57114 l 51.99603,35.39241 a 24.90631,24.90631 0 0 0 -0.0168,0.87494 24.90631,24.90631 0 0 0 10.08691,20.01708 l -4.27264,63.66241 a 24.90631,24.90631 0 0 0 -18.26724,24.00367 24.90631,24.90631 0 0 0 24.90701,24.90699 24.90631,24.90631 0 0 0 10.7294,-2.43022 l 87.52411,64.64775 a 24.90631,24.90631 0 0 0 24.81235,22.75646 24.90631,24.90631 0 0 0 24.90594,-24.90594 24.90631,24.90631 0 0 0 -1.06844,-7.21603 l 50.26196,-71.20339 a 24.90631,24.90631 0 0 0 1.35235,0.0377 24.90631,24.90631 0 0 0 24.90595,-24.90701 24.90631,24.90631 0 0 0 -24.90595,-24.90592 24.90631,24.90631 0 0 0 -12.14589,3.16212 l -149.8805,-61.11012 a 24.90631,24.90631 0 0 0 0.86756,-6.51567 24.90631,24.90631 0 0 0 -24.90595,-24.90595 24.90631,24.90631 0 0 0 -18.49858,8.2298 l -48.12616,-28.98612 a 24.90631,24.90631 0 0 0 3.62587,-12.94092 24.90631,24.90631 0 0 0 -24.90594,-24.90594 24.90631,24.90631 0 0 0 -9.15306,1.74355 l -7.50733,-23.2055 a 24.90631,24.90631 0 0 0 8.60203,-18.82774 24.90631,24.90631 0 0 0 -24.90593,-24.905936 24.90631,24.90631 0 0 0 -0.0158,0 z m 139.16895,165.61649 144.1419,64.61515 a 24.90631,24.90631 0 0 0 -1.26822,7.84278 24.90631,24.90631 0 0 0 11.65377,21.08761 l -49.19461,60.95877 a 24.90631,24.90631 0 0 0 -13.004,-3.66481 24.90631,24.90631 0 0 0 -18.46597,8.19507 l -84.77843,-53.18434 a 24.90631,24.90631 0 0 0 5.08447,-15.07879 24.90631,24.90631 0 0 0 -18.12105,-23.96371 l 3.2736,-58.92815 a 24.90631,24.90631 0 0 0 2.39449,0.11572 24.90631,24.90631 0 0 0 18.28405,-7.99524 z" />
  </g>
</svg>
