<?xml version="1.0" encoding="UTF-8" standalone="no"?>
<svg
   viewBox="0 0 500 500"
   width="500px"
   height="500px"
   version="1.1"
   id="svg18"
   sodipodi:docname="spinner.svg"
   inkscape:version="1.4.3 (0d15f75, 2025-12-25)"
   xml:space="preserve"
   xmlns:inkscape="http://www.inkscape.org/namespaces/inkscape"
   xmlns:sodipodi="http://sodipodi.sourceforge.net/DTD/sodipodi-0.dtd"
   xmlns="http://www.w3.org/2000/svg"
   xmlns:svg="http://www.w3.org/2000/svg"
   xmlns:rdf="http://www.w3.org/1999/02/22-rdf-syntax-ns#"
   xmlns:cc="http://creativecommons.org/ns#"
   xmlns:dc="http://purl.org/dc/elements/1.1/"><metadata
     id="metadata22"><rdf:RDF><cc:Work
         rdf:about=""><dc:format>image/svg+xml</dc:format><dc:type
           rdf:resource="http://purl.org/dc/dcmitype/StillImage" /></cc:Work></rdf:RDF></metadata><sodipodi:namedview
     pagecolor="#4a4444"
     bordercolor="#666666"
     borderopacity="1"
     objecttolerance="10"
     gridtolerance="10"
     guidetolerance="10"
     inkscape:pageopacity="0"
     inkscape:pageshadow="2"
     inkscape:window-width="1680"
     inkscape:window-height="979"
     id="namedview20"
     showgrid="false"
     inkscape:pagecheckerboard="true"
     inkscape:zoom="0.73500002"
     inkscape:cx="342.85713"
     inkscape:cy="290.47618"
     inkscape:window-x="-8"
     inkscape:window-y="-8"
     inkscape:window-maximized="1"
     inkscape:current-layer="g16"
     inkscape:document-rotation="0"
     inkscape:showpageshadow="2"
     inkscape:deskcolor="#d1d1d1" /><defs
     id="defs2"><filter
       inkscape:collect="always"
       style="color-interpolation-filters:sRGB"
       id="filter847"
       x="-0.0025593142"
       width="1.0051186"
       y="-0.0023603752"
       height="1.0047208"><feGaussianBlur
         inkscape:collect="always"
         stdDeviation="0.40166199"
         id="feGaussianBlur849" /></filter></defs><g
     transform="matrix(1.121279,0,0,1.121279,-30.319751,-30.319751)"
     id="g16"
     style="filter:url(#filter847)"
     inkscape:label="Logo"><circle
       style="fill:#f2f2f2;stroke-width:0"
       id="path1"
       cx="251.40561"
       cy="252.26361"
       r="51.9086"
       inkscape:label="Sun" /><circle
       style="fill:#f2f2f2;stroke-width:0"
       id="path3"
       cx="219.23085"
       cy="75.087959"
       r="30.029768"
       inkscape:label="Planet 3" /><circle
       style="fill:#f2f2f2;stroke-width:0"
       id="path4"
       cx="329.483"
       cy="331.19897"
       r="21.020838"
       inkscape:label="Planet 2" /><circle
       style="fill:#f2f2f2;stroke-width:0"
       id="path5"
       cx="175.47319"
       cy="169.46724"
       r="20.591843"
       inkscape:label="Planet 1" /><circle
       style="fill:#f2f2f2;stroke-width:0"
       id="path6"
       cx="281.86438"
       cy="426.00729"
       r="27.45579"
       inkscape:label="Planet 0" /><path
       id="path7"
       style="fill:#f2f2f2;stroke-width:0"
       d="m 302.51348,68.769145 c -5.0983,0.549521 -7.42157,10.190177 -3.48848,13.652275 74.42879,21.77414 125.57717,90.03016 125.57681,167.57858 3.6e-4,77.54842 -51.14802,145.80444 -125.57681,167.57858 v 14.25897 C 381.22091,409.67668 438.32992,335.13091 438.32951,250 438.32992,164.86909 384.7094,90.930016 302.51348,68.769145 Z M 190.91743,71.177633 C 113.77289,96.666134 61.670285,168.75381 61.670493,250 c -2.09e-4,81.24619 48.462237,150.60375 125.606777,176.09225 5.08453,-2.18038 6.65471,-5.96565 3.64016,-11.79013 C 121.61223,389.38015 75.397963,323.64995 75.39819,250 75.397964,176.35005 121.61223,110.61985 190.91743,85.697882 Z"
       inkscape:label="Outer Rings"
       sodipodi:nodetypes="cccccccccccccc" /><path
       id="path8"
       style="fill:#f2f2f2;stroke-width:0"
       d="m 250,130.31072 c -9.28146,7e-5 -14.58791,0.018 -23.61989,2.15553 -3.87703,4.98754 -2.88893,9.0905 2.13041,12.46052 7.0717,-1.4465 14.27136,-2.17539 21.48948,-2.1756 59.23181,1.9e-4 107.24864,48.01702 107.24883,107.24883 -10e-6,28.73194 -11.52852,56.26244 -32.00168,76.42117 l 6.07565,11.39707 C 355.78398,315.16631 369.68905,283.33855 369.68928,250 369.68883,183.89762 316.10238,130.31117 250,130.31072 Z m -81.3228,31.87104 C 144.21602,184.83369 130.31095,216.66145 130.31072,250 c 4.5e-4,66.10238 53.5869,119.68883 119.68928,119.68928 9.28146,-7e-5 15.64962,-1.53476 24.6816,-3.67226 3.48184,-6.0405 0.94989,-8.91584 -3.19212,-10.94379 -7.0717,1.4465 -14.27136,2.17539 -21.48948,2.1756 C 190.76819,357.24864 142.75136,309.23181 142.75117,250 c 1e-5,-28.73194 11.52852,-56.26244 32.00168,-76.42117 z"
       inkscape:label="Inner Rings"
       sodipodi:nodetypes="cccccccccccccccccc" /></g></svg>
