<?xml version="1.0" encoding="UTF-8" standalone="no"?>
<svg
   viewBox="0 0 500 500"
   width="500px"
   height="500px"
   version="1.1"
   id="svg18"
   sodipodi:docname="spinner.svg"
   inkscape:version="1.4.3 (0d15f75, 2025-12-25)"
   xmlns:inkscape="http://www.inkscape.org/namespaces/inkscape"
   xmlns:sodipodi="http://sodipodi.sourceforge.net/DTD/sodipodi-0.dtd"
   xmlns="http://www.w3.org/2000/svg"
   xmlns:svg="http://www.w3.org/2000/svg"
   xmlns:rdf="http://www.w3.org/1999/02/22-rdf-syntax-ns#"
   xmlns:cc="http://creativecommons.org/ns#"
   xmlns:dc="http://purl.org/dc/elements/1.1/">
  <metadata
     id="metadata22">
    <rdf:RDF>
      <cc:Work
         rdf:about="">
        <dc:format>image/svg+xml</dc:format>
        <dc:type
           rdf:resource="http://purl.org/dc/dcmitype/StillImage" />
      </cc:Work>
    </rdf:RDF>
  </metadata>
  <sodipodi:namedview
     pagecolor="#4a4444"
     bordercolor="#666666"
     borderopacity="1"
     objecttolerance="10"
     gridtolerance="10"
     guidetolerance="10"
     inkscape:pageopacity="0"
     inkscape:pageshadow="2"
     inkscape:window-width="1680"
     inkscape:window-height="979"
     id="namedview20"
     showgrid="false"
     inkscape:pagecheckerboard="true"
     inkscape:zoom="0.25986175"
     inkscape:cx="-315.55241"
     inkscape:cy="-71.191701"
     inkscape:window-x="-8"
     inkscape:window-y="-8"
     inkscape:window-maximized="1"
     inkscape:current-layer="g16"
     inkscape:document-rotation="0"
     inkscape:showpageshadow="2"
     inkscape:deskcolor="#d1d1d1" />
  <defs
     id="defs2">
    <filter
       inkscape:collect="always"
       style="color-interpolation-filters:sRGB"
       id="filter847"
       x="-0.0032257361"
       width="1.0064515"
       y="-0.0083433365"
       height="1.0166867">
      <feGaussianBlur
         inkscape:collect="always"
         stdDeviation="0.40166199"
         id="feGaussianBlur849" />
    </filter>
  </defs>
  <g
     transform="matrix(1.121279,0,0,1.121279,-30.319751,-30.319751)"
     id="g16"
     style="filter:url(#filter847)"
     inkscape:label="Logo">
    <path
       id="path2"
       style="fill:#999999;stroke-width:0"
       d="M 250,37.657043 A 212.34254,212.34254 0 0 0 37.657042,250 212.34254,212.34254 0 0 0 250,462.34296 212.34254,212.34254 0 0 0 462.34296,250 212.34254,212.34254 0 0 0 250,37.657043 Z m 0,65.402077 A 146.94104,146.94104 0 0 1 396.94088,250 146.94104,146.94104 0 0 1 250,396.94088 146.94104,146.94104 0 0 1 103.05912,250 146.94104,146.94104 0 0 1 250,103.05912 Z"
       inkscape:label="bg" />
    <path
       id="path2-8"
       style="fill:#0066ff;stroke-width:0;filter:url(#filter847)"
       d="m 249.94784,37.815582 c -50.47459,1.54e-4 -99.29853,17.980217 -137.71766,50.716359 -26.599554,25.026189 19.28686,73.401369 40.73368,51.238929 26.81522,-23.55956 61.28932,-36.55282 96.98398,-36.5532 38.20077,2.7e-4 74.89986,14.87734 102.31759,41.47747 24.57358,28.44602 71.1131,-19.61913 40.8382,-51.367825 C 353.97964,57.614888 302.92014,37.815471 249.94784,37.815582 Z"
       sodipodi:nodetypes="ccccccc"
       inkscape:label="fg" />
  </g>
</svg>
