<?xml version="1.0" encoding="UTF-8" standalone="no"?>
<svg
   viewBox="0 0 500 500"
   width="500px"
   height="500px"
   version="1.1"
   id="svg18"
   sodipodi:docname="spinner.svg"
   inkscape:version="1.4.3 (0d15f75, 2025-12-25)"
   xmlns:inkscape="http://www.inkscape.org/namespaces/inkscape"
   xmlns:sodipodi="http://sodipodi.sourceforge.net/DTD/sodipodi-0.dtd"
   xmlns="http://www.w3.org/2000/svg"
   xmlns:svg="http://www.w3.org/2000/svg"
   xmlns:rdf="http://www.w3.org/1999/02/22-rdf-syntax-ns#"
   xmlns:cc="http://creativecommons.org/ns#"
   xmlns:dc="http://purl.org/dc/elements/1.1/">
  <metadata
     id="metadata22">
    <rdf:RDF>
      <cc:Work
         rdf:about="">
        <dc:format>image/svg+xml</dc:format>
        <dc:type
           rdf:resource="http://purl.org/dc/dcmitype/StillImage" />
      </cc:Work>
    </rdf:RDF>
  </metadata>
  <sodipodi:namedview
     pagecolor="#4a4444"
     bordercolor="#666666"
     borderopacity="1"
     objecttolerance="10"
     gridtolerance="10"
     guidetolerance="10"
     inkscape:pageopacity="0"
     inkscape:pageshadow="2"
     inkscape:window-width="1680"
     inkscape:window-height="979"
     id="namedview20"
     showgrid="false"
     inkscape:pagecheckerboard="true"
     inkscape:zoom="0.73500002"
     inkscape:cx="327.89115"
     inkscape:cy="302.72108"
     inkscape:window-x="-8"
     inkscape:window-y="-8"
     inkscape:window-maximized="1"
     inkscape:current-layer="g16"
     inkscape:document-rotation="0"
     inkscape:showpageshadow="2"
     inkscape:deskcolor="#d1d1d1" />
  <defs
     id="defs2">
    <filter
       inkscape:collect="always"
       style="color-interpolation-filters:sRGB"
       id="filter847"
       x="-1.9989665"
       width="4.997971"
       y="-0.76098968"
       height="2.956832">
      <feGaussianBlur
         inkscape:collect="always"
         stdDeviation="0.40166199"
         id="feGaussianBlur849" />
    </filter>
  </defs>
  <g
     transform="matrix(1.121279,0,0,1.121279,-30.319751,-30.319751)"
     id="g16"
     style="filter:url(#filter847)"
     inkscape:label="Logo">
    <path
       id="path1-8"
       style="fill:#999999;stroke-width:0;filter:url(#filter847)"
       d="M 249.99999,38.823751 A 206.88229,206.88229 0 0 0 43.117805,245.70594 206.88229,206.88229 0 0 0 249.99999,452.58813 206.88229,206.88229 0 0 0 456.88218,245.70594 206.88229,206.88229 0 0 0 249.99999,38.823751 Z m 0,49.747873 A 157.13347,157.13347 0 0 1 407.1343,245.70594 157.13347,157.13347 0 0 1 249.99999,402.84025 157.13347,157.13347 0 0 1 92.865675,245.70594 157.13347,157.13347 0 0 1 249.99999,88.571624 Z"
       inkscape:label="spinner-bottom" />
    <path
       id="path1"
       style="fill:#2a7fff;stroke-width:0"
       d="M 249.7855,38.331156 A 206.88229,206.88229 0 0 0 132.53832,74.762418 l 24.97671,43.259392 A 157.13347,157.13347 0 0 1 249.7855,88.079033 157.13347,157.13347 0 0 1 342.05597,118.02181 L 367.03268,74.762418 A 206.88229,206.88229 0 0 0 249.7855,38.331156 Z"
       inkscape:label="spinner-top" />
  </g>
</svg>
